<svg width="67" height="54" viewBox="0 0 67 54" fill="none" xmlns="http://www.w3.org/2000/svg">
<circle cx="31.8936" cy="26.8936" r="26.8936" fill="#0A553A"/>
<circle cx="2" cy="17" r="2" fill="#1270EA"/>
<circle cx="2" cy="28" r="2" fill="#1270EA"/>
<circle cx="2" cy="39" r="2" fill="#1270EA"/>
<circle cx="12" cy="17" r="2" fill="#1270EA"/>
<circle cx="12" cy="28" r="2" fill="#1270EA"/>
<circle cx="12" cy="39" r="2" fill="#1270EA"/>
<circle cx="22" cy="17" r="2" fill="#1270EA"/>
<circle cx="22" cy="28" r="2" fill="#1270EA"/>
<circle cx="22" cy="39" r="2" fill="#1270EA"/>
<circle cx="32" cy="17" r="2" fill="#1270EA"/>
<circle cx="32" cy="28" r="2" fill="#1270EA"/>
<circle cx="32" cy="39" r="2" fill="#1270EA"/>
<circle cx="42" cy="17" r="2" fill="#1270EA"/>
<circle cx="42" cy="28" r="2" fill="#1270EA"/>
<circle cx="42" cy="39" r="2" fill="#1270EA"/>
<circle cx="52" cy="17" r="2" fill="#1270EA"/>
<circle cx="52" cy="28" r="2" fill="#1270EA"/>
<circle cx="52" cy="39" r="2" fill="#1270EA"/>
<circle cx="57" cy="42" r="10" fill="#A6D6C5"/>
</svg>
