<svg width="59" height="64" viewBox="0 0 59 64" fill="none" xmlns="http://www.w3.org/2000/svg">
<mask id="mask0" mask-type="alpha" maskUnits="userSpaceOnUse" x="28" y="0" width="31" height="30">
<circle cx="43.575" cy="14.9787" r="14.9787" transform="rotate(90 43.575 14.9787)" fill="#A6D6C4"/>
</mask>
<g mask="url(#mask0)">
<path d="M35.5996 -27.6826L0.319817 7.59717" stroke="#FCE481"/>
<path d="M59.9834 -3.29883L24.7036 31.981" stroke="#FCE481"/>
<path d="M47.792 -15.4912L12.5122 19.7886" stroke="#FCE481"/>
<path d="M72.1758 8.89258L36.896 44.1724" stroke="#FCE481"/>
<path d="M41.6953 -21.5869L6.41552 13.6929" stroke="#FCE481"/>
<path d="M66.0801 2.79688L30.8003 38.0767" stroke="#FCE481"/>
<path d="M53.8877 -9.39453L18.6079 25.8853" stroke="#FCE481"/>
<path d="M78.2715 14.9883L42.9917 50.2681" stroke="#FCE481"/>
<path d="M38.6484 -24.6348L3.36864 10.645" stroke="#FCE481"/>
<path d="M63.0322 -0.251953L27.7524 35.0278" stroke="#FCE481"/>
<path d="M50.8408 -12.4434L15.561 22.8364" stroke="#FCE481"/>
<path d="M75.2236 11.9404L39.9438 47.2202" stroke="#FCE481"/>
<path d="M44.7441 -18.5391L9.46435 16.7407" stroke="#FCE481"/>
<path d="M69.1279 5.84473L33.8481 41.1245" stroke="#FCE481"/>
<path d="M56.9355 -6.34766L21.6558 28.9321" stroke="#FCE481"/>
<path d="M81.3193 18.0361L46.0395 53.3159" stroke="#FCE481"/>
<path d="M37.124 -26.1592L1.84423 9.12061" stroke="#FCE481"/>
<path d="M61.5078 -1.77441L26.228 33.5054" stroke="#FCE481"/>
<path d="M49.3164 -13.9668L14.0366 21.313" stroke="#FCE481"/>
<path d="M73.6992 10.416L38.4194 45.6958" stroke="#FCE481"/>
<path d="M43.2197 -20.0625L7.93993 15.2173" stroke="#FCE481"/>
<path d="M67.6035 4.31934L32.3237 39.5991" stroke="#FCE481"/>
<path d="M55.4121 -7.87109L20.1323 27.4087" stroke="#FCE481"/>
<path d="M79.7959 16.5127L44.5161 51.7925" stroke="#FCE481"/>
<path d="M40.1719 -23.1113L4.89208 12.1685" stroke="#FCE481"/>
<path d="M64.5557 1.27246L29.2759 36.5522" stroke="#FCE481"/>
<path d="M52.3643 -10.9199L17.0845 24.3599" stroke="#FCE481"/>
<path d="M76.748 13.4648L41.4683 48.7446" stroke="#FCE481"/>
<path d="M46.2686 -17.0146L10.9888 18.2651" stroke="#FCE481"/>
<path d="M70.6514 7.36816L35.3716 42.648" stroke="#FCE481"/>
<path d="M58.46 -4.82324L23.1802 30.4565" stroke="#FCE481"/>
<path d="M82.8438 19.5596L47.564 54.8394" stroke="#FCE481"/>
</g>
<ellipse cx="8.85106" cy="28.9364" rx="8.85106" ry="8.51064" fill="#A6D6C5"/>
<circle cx="31.6592" cy="37.1065" r="26.8936" fill="#F8AD3B"/>
<mask id="mask1" mask-type="alpha" maskUnits="userSpaceOnUse" x="4" y="10" width="55" height="55">
<circle cx="31.6592" cy="37.1065" r="26.8936" fill="#10157D"/>
</mask>
<g mask="url(#mask1)">
<path d="M-36.7666 64.3402L-7.83043 35.404L4.42489 47.6593L26.2121 25.8721" stroke="#0A553A" stroke-width="5"/>
<path d="M32.6186 19.0707L21.7863 21.7186L29.9707 29.903L32.6186 19.0707Z" fill="#0A553A"/>
<path d="M-36.7666 79.3187L-7.83043 50.3825L4.42489 62.6378L26.2121 40.8506" stroke="#1270EA" stroke-width="5"/>
<path d="M32.6186 34.0492L21.7863 36.6971L29.9707 44.8815L32.6186 34.0492Z" fill="#1270EA"/>
<path d="M-36.7666 94.2982L-7.83043 65.362L4.42489 77.6173L26.2121 55.8301" stroke="#A6D6C5" stroke-width="5"/>
<path d="M32.6186 49.0287L21.7863 51.6766L29.9707 59.861L32.6186 49.0287Z" fill="#A6D6C5"/>
</g>
</svg>
