<svg width="54" height="54" viewBox="0 0 54 54" fill="none" xmlns="http://www.w3.org/2000/svg">
<circle cx="26.895" cy="26.895" r="21.395" stroke="#1270EA" stroke-width="11"/>
<mask id="mask0" mask-type="alpha" maskUnits="userSpaceOnUse" x="3" y="20" width="47" height="14">
<path d="M3 20H50V34H3V20Z" fill="#10157D"/>
</mask>
<g mask="url(#mask0)">
<path d="M-5.42969 -4.6543L51.7025 52.4779" stroke="#10157D"/>
<path d="M-25.1729 15.0889L31.9594 72.2211" stroke="#10157D"/>
<path d="M14.3135 -24.3984L71.4457 32.7338" stroke="#10157D"/>
<path d="M-35.0449 24.9609L22.0873 82.0932" stroke="#10157D"/>
<path d="M4.44238 -14.5273L61.5746 42.6049" stroke="#10157D"/>
<path d="M-15.3018 5.2168L41.8305 62.349" stroke="#10157D"/>
<path d="M24.1855 -34.2695L81.3178 22.8627" stroke="#10157D"/>
<path d="M-39.9805 29.8965L17.1518 87.0287" stroke="#10157D"/>
<path d="M-0.494141 -9.59082L56.6381 47.5414" stroke="#10157D"/>
<path d="M-20.2373 10.1523L36.8949 67.2846" stroke="#10157D"/>
<path d="M19.249 -29.334L76.3813 27.7983" stroke="#10157D"/>
<path d="M-30.1084 20.0244L27.0238 77.1567" stroke="#10157D"/>
<path d="M9.37695 -19.4619L66.5092 37.6703" stroke="#10157D"/>
<path d="M-10.3652 0.28125L46.767 57.4135" stroke="#10157D"/>
<path d="M-42.4482 32.3643L14.684 89.4965" stroke="#10157D"/>
<path d="M-2.96191 -7.12207L54.1703 50.0102" stroke="#10157D"/>
<path d="M-22.7051 12.6201L34.4272 69.7524" stroke="#10157D"/>
<path d="M16.7812 -26.8662L73.9135 30.266" stroke="#10157D"/>
<path d="M-32.5762 22.4932L24.5561 79.6254" stroke="#10157D"/>
<path d="M6.90918 -16.9941L64.0414 40.1381" stroke="#10157D"/>
<path d="M-12.834 2.74902L44.2983 59.8813" stroke="#10157D"/>
<path d="M26.6533 -36.7373L83.7856 20.3949" stroke="#10157D"/>
<path d="M-37.5127 27.4277L19.6195 84.56" stroke="#10157D"/>
<path d="M1.97363 -12.0586L59.1059 45.0736" stroke="#10157D"/>
<path d="M-17.7695 7.68457L39.3627 64.8168" stroke="#10157D"/>
<path d="M21.7168 -31.8018L78.849 25.3305" stroke="#10157D"/>
<path d="M-27.6406 17.5566L29.4916 74.6889" stroke="#10157D"/>
<path d="M11.8457 -21.9297L68.9779 35.2025" stroke="#10157D"/>
<path d="M-7.89746 -2.18652L49.2348 54.9457" stroke="#10157D"/>
</g>
</svg>
