<svg id="Layer_1" data-name="Layer 1" xmlns="http://www.w3.org/2000/svg" viewBox="0 0 314.42 291.85"><defs><style>.cls-1{fill:#01663b;}.cls-2{fill:#f78e09;}.cls-3{fill:#1e77bd;}.cls-4{fill:#f49115;}.cls-5{fill:#2078c0;}</style></defs><title>logo</title><path class="cls-1" d="M308.88,92.22a19.4,19.4,0,1,0,19.4,19.4A19.39,19.39,0,0,0,308.88,92.22Zm0,30.83a11.43,11.43,0,1,1,11.43-11.43A11.45,11.45,0,0,1,308.88,123.05Z" transform="translate(-25.06 -12.89)"/><path class="cls-2" d="M323.2,151.13a16.27,16.27,0,1,0,16.28,16.27A16.27,16.27,0,0,0,323.2,151.13Zm0,25.85a9.59,9.59,0,1,1,9.59-9.58A9.6,9.6,0,0,1,323.2,177Z" transform="translate(-25.06 -12.89)"/><path class="cls-3" d="M267.06,159.41a12.31,12.31,0,1,0,12.3,12.3A12.31,12.31,0,0,0,267.06,159.41Zm0,19.55a7.25,7.25,0,1,1,7.25-7.25A7.26,7.26,0,0,1,267.06,179Z" transform="translate(-25.06 -12.89)"/><path class="cls-3" d="M38.71,209.65A13.65,13.65,0,1,0,52.36,223.3,13.65,13.65,0,0,0,38.71,209.65Zm0,21.69a8,8,0,1,1,8-8A8.05,8.05,0,0,1,38.71,231.34Z" transform="translate(-25.06 -12.89)"/><path class="cls-1" d="M310.7,129s-12.12,84.14-89.58,131.48C154,303.28,87.29,289.14,66.44,262.11S60,202,60,202s-25.15,85.68,84.86,79.48c0,0,57.14-2.45,112.81-63,0,0,35.8-38.47,43.87-89.51Z" transform="translate(-25.06 -12.89)"/><path class="cls-4" d="M311.86,177S268.2,292.39,140.71,297.63c0,0-58.9,4.84-88.35-41.15,0,0,28.64,50,88.75,48.21,66.37-2.42,135-33.28,182.09-123.25Z" transform="translate(-25.06 -12.89)"/><path class="cls-5" d="M258.92,177s-42.54,71.62-107,86.36-82-32.82-82-32.82,17.75,55.14,85.53,37.93c72.89-19,110.54-86.88,110.54-86.88Z" transform="translate(-25.06 -12.89)"/><path class="cls-3" d="M37.29,212.23S39.18,163,84.9,134.5c0,0-42.23,33.35-39.27,79.35Z" transform="translate(-25.06 -12.89)"/><polygon class="cls-5" points="218.61 76.65 187.29 102.73 179.57 99.35 179.57 29.18 218.61 0 218.61 76.65"/><polygon class="cls-5" points="127.99 56.1 167.24 32.88 167.24 92.88 147.61 81.58 127.99 106.24 127.99 56.1"/><polygon class="cls-5" points="116.07 60.41 76.41 85.48 76.41 120.83 93.67 103.17 116.07 114.25 116.07 60.41"/><path class="cls-4" d="M101.33,144.43v109h0c22.17,0,40.14-26.88,40.14-60V142.73l-18.94-18.21Z" transform="translate(-25.06 -12.89)"/><path class="cls-4" d="M153,138.18V237h0c22.17,0,40.14-22.76,40.14-50.84V123.05L178.55,112.3Z" transform="translate(-25.06 -12.89)"/><path class="cls-4" d="M204.67,128.8v81.91h0a40.14,40.14,0,0,0,40.14-40.14V102.78L229.27,114Z" transform="translate(-25.06 -12.89)"/><polygon class="cls-1" points="46.83 155.78 96.15 108.52 121.22 121.25 150.76 88.38 187.8 108.93 235.88 69.88 228.07 61.25 261.36 50.57 251.91 84.68 243.69 78.1 187.39 124.13 154.1 105.64 123.05 134.82 96.97 117.56 46.83 155.78"/></svg>