<svg width="59" height="64" viewBox="0 0 59 64" fill="none" xmlns="http://www.w3.org/2000/svg">
<mask id="mask0" mask-type="alpha" maskUnits="userSpaceOnUse" x="28" y="0" width="31" height="30">
<circle cx="43.574" cy="14.9787" r="14.9787" transform="rotate(90 43.574 14.9787)" fill="#A6D6C4"/>
</mask>
<g mask="url(#mask0)">
<path d="M35.5986 -27.6826L0.31884 7.59717" stroke="#10157D"/>
<path d="M59.9824 -3.29883L24.7026 31.981" stroke="#10157D"/>
<path d="M47.791 -15.4912L12.5112 19.7886" stroke="#10157D"/>
<path d="M72.1748 8.89258L36.895 44.1724" stroke="#10157D"/>
<path d="M41.6943 -21.5869L6.41454 13.6929" stroke="#10157D"/>
<path d="M66.0791 2.79688L30.7993 38.0767" stroke="#10157D"/>
<path d="M53.8867 -9.39453L18.6069 25.8853" stroke="#10157D"/>
<path d="M78.2705 14.9883L42.9907 50.2681" stroke="#10157D"/>
<path d="M38.6475 -24.6348L3.36767 10.645" stroke="#10157D"/>
<path d="M63.0312 -0.251953L27.7515 35.0278" stroke="#10157D"/>
<path d="M50.8398 -12.4434L15.5601 22.8364" stroke="#10157D"/>
<path d="M75.2227 11.9404L39.9429 47.2202" stroke="#10157D"/>
<path d="M44.7432 -18.5391L9.46337 16.7407" stroke="#10157D"/>
<path d="M69.127 5.84473L33.8472 41.1245" stroke="#10157D"/>
<path d="M56.9346 -6.34766L21.6548 28.9321" stroke="#10157D"/>
<path d="M81.3184 18.0361L46.0386 53.3159" stroke="#10157D"/>
<path d="M37.123 -26.1592L1.84325 9.12061" stroke="#10157D"/>
<path d="M61.5068 -1.77441L26.227 33.5054" stroke="#10157D"/>
<path d="M49.3154 -13.9668L14.0356 21.313" stroke="#10157D"/>
<path d="M73.6982 10.416L38.4184 45.6958" stroke="#10157D"/>
<path d="M43.2188 -20.0625L7.93896 15.2173" stroke="#10157D"/>
<path d="M67.6025 4.31934L32.3227 39.5991" stroke="#10157D"/>
<path d="M55.4111 -7.87109L20.1313 27.4087" stroke="#10157D"/>
<path d="M79.7949 16.5127L44.5151 51.7925" stroke="#10157D"/>
<path d="M40.1709 -23.1113L4.89111 12.1685" stroke="#10157D"/>
<path d="M64.5547 1.27246L29.2749 36.5522" stroke="#10157D"/>
<path d="M52.3633 -10.9199L17.0835 24.3599" stroke="#10157D"/>
<path d="M76.7471 13.4648L41.4673 48.7446" stroke="#10157D"/>
<path d="M46.2676 -17.0146L10.9878 18.2651" stroke="#10157D"/>
<path d="M70.6504 7.36816L35.3706 42.648" stroke="#10157D"/>
<path d="M58.459 -4.82324L23.1792 30.4565" stroke="#10157D"/>
<path d="M82.8428 19.5596L47.563 54.8394" stroke="#10157D"/>
</g>
<ellipse cx="8.85106" cy="28.9364" rx="8.85106" ry="8.51064" fill="#0A553A"/>
<circle cx="31.6592" cy="37.1065" r="26.8936" fill="#1270EA"/>
<path d="M42.2 43.95C42.2 37.6 38 35.4 33.7 33.3L32.3 32.65L33.6 19.1C36.3 20.05 38.45 22.65 40.55 27.1H40.85V19.75C39 19.05 36.15 18.4 33.7 18.15L34.1 13.55H33.2L32.75 18.05C32.35 18 31.95 18 31.55 18C25.1 18 20.7 22.65 20.7 28.95C20.7 34.95 24.6 37.15 27.7 38.65L30.3 39.9L30.65 40.05L29.3 54.75C25.2 53.95 22.4 50.35 20.2 44.6H19.9L20.25 53.8C22.5 54.7 26.35 55.45 29.2 55.6L28.8 60.05H29.7L30.15 55.6C37.3 55.55 42.2 50.6 42.2 43.95ZM31.05 32.05C27.85 30.55 24.85 29.05 24.85 24.95C24.85 21.2 27.3 18.7 31.15 18.7C31.7 18.7 32.2 18.75 32.65 18.85L31.4 32.2L31.05 32.05ZM31 54.9C30.75 54.9 30.45 54.9 30.2 54.85L31.55 40.5C35.15 42.25 38.05 44.15 38.05 48.2C38.05 52.4 34.8 54.9 31 54.9Z" fill="#A6D6C5"/>
</svg>
